<svg width="57" height="58" viewBox="0 0 57 58" fill="none" xmlns="http://www.w3.org/2000/svg">
<ellipse cx="28.5" cy="29" rx="28.5" ry="29" fill="#F3C244"/>
<g clip-path="url(#clip0_16_569)">
<path d="M25 29C25 29.2652 25.1054 29.5196 25.2929 29.7071C25.4804 29.8946 25.7348 30 26 30C26.2652 30 26.5196 29.8946 26.7071 29.7071C26.8946 29.5196 27 29.2652 27 29C27 28.7348 26.8946 28.4804 26.7071 28.2929C26.5196 28.1054 26.2652 28 26 28C25.7348 28 25.4804 28.1054 25.2929 28.2929C25.1054 28.4804 25 28.7348 25 29Z" stroke="white" stroke-width="2" stroke-linecap="round" stroke-linejoin="round"/>
<path d="M31 29C31 29.2652 31.1054 29.5196 31.2929 29.7071C31.4804 29.8946 31.7348 30 32 30C32.2652 30 32.5196 29.8946 32.7071 29.7071C32.8946 29.5196 33 29.2652 33 29C33 28.7348 32.8946 28.4804 32.7071 28.2929C32.5196 28.1054 32.2652 28 32 28C31.7348 28 31.4804 28.1054 31.2929 28.2929C31.1054 28.4804 31 28.7348 31 29Z" stroke="white" stroke-width="2" stroke-linecap="round" stroke-linejoin="round"/>
<path d="M32.4999 34C32.4999 35 33.9999 37 34.4999 37C35.9999 37 37.3329 35.333 37.9999 34C38.6669 32.333 38.4999 28.167 36.4999 22.5C35.0429 21.485 33.4999 21.16 31.9999 21L31.0279 22.923C29.6869 22.6915 28.316 22.6915 26.9749 22.923L25.9999 21C24.4999 21.16 22.9569 21.485 21.4999 22.5C19.4999 28.167 19.3329 32.333 19.9999 34C20.6669 35.333 21.9999 37 23.4999 37C23.9999 37 25.4999 35 25.4999 34" stroke="white" stroke-width="2" stroke-linecap="round" stroke-linejoin="round"/>
<path d="M24 33.5C27.5 34.5 30.5 34.5 34 33.5" stroke="white" stroke-width="2" stroke-linecap="round" stroke-linejoin="round"/>
</g>
<defs>
<clipPath id="clip0_16_569">
<rect width="24" height="24" fill="white" transform="translate(17 17)"/>
</clipPath>
</defs>
</svg>
