<svg width="185" height="48" viewBox="0 0 185 48" fill="none" xmlns="http://www.w3.org/2000/svg">
<path d="M48.3438 38.5586C48.3438 38.0508 48.2656 37.5951 48.1094 37.1914C47.9661 36.7747 47.6927 36.3971 47.2891 36.0586C46.8854 35.707 46.319 35.362 45.5898 35.0234C44.8607 34.6849 43.9167 34.3333 42.7578 33.9688C41.4688 33.5521 40.2448 33.0833 39.0859 32.5625C37.9401 32.0417 36.9245 31.4362 36.0391 30.7461C35.1667 30.043 34.4766 29.2292 33.9688 28.3047C33.474 27.3802 33.2266 26.306 33.2266 25.082C33.2266 23.8971 33.487 22.8229 34.0078 21.8594C34.5286 20.8828 35.2578 20.0495 36.1953 19.3594C37.1328 18.6562 38.2396 18.1159 39.5156 17.7383C40.8047 17.3607 42.2174 17.1719 43.7539 17.1719C45.8503 17.1719 47.6797 17.5495 49.2422 18.3047C50.8047 19.0599 52.0156 20.0951 52.875 21.4102C53.7474 22.7253 54.1836 24.2292 54.1836 25.9219H48.3633C48.3633 25.0885 48.1875 24.3594 47.8359 23.7344C47.4974 23.0964 46.9766 22.5951 46.2734 22.2305C45.5833 21.8659 44.7109 21.6836 43.6562 21.6836C42.6406 21.6836 41.7943 21.8398 41.1172 22.1523C40.4401 22.4518 39.9323 22.862 39.5938 23.3828C39.2552 23.8906 39.0859 24.4635 39.0859 25.1016C39.0859 25.5833 39.2031 26.0195 39.4375 26.4102C39.6849 26.8008 40.0495 27.1654 40.5312 27.5039C41.013 27.8424 41.6055 28.1615 42.3086 28.4609C43.0117 28.7604 43.8255 29.0534 44.75 29.3398C46.2995 29.8086 47.6602 30.3359 48.832 30.9219C50.0169 31.5078 51.0065 32.1654 51.8008 32.8945C52.5951 33.6237 53.194 34.4505 53.5977 35.375C54.0013 36.2995 54.2031 37.3477 54.2031 38.5195C54.2031 39.7565 53.9622 40.8633 53.4805 41.8398C52.9987 42.8164 52.3021 43.6432 51.3906 44.3203C50.4792 44.9974 49.3919 45.5117 48.1289 45.8633C46.8659 46.2148 45.4531 46.3906 43.8906 46.3906C42.4844 46.3906 41.0977 46.2083 39.7305 45.8438C38.3633 45.4661 37.1198 44.8997 36 44.1445C34.8932 43.3893 34.0078 42.4258 33.3438 41.2539C32.6797 40.082 32.3477 38.6953 32.3477 37.0938H38.2266C38.2266 37.9792 38.3633 38.7279 38.6367 39.3398C38.9102 39.9518 39.2943 40.4466 39.7891 40.8242C40.2969 41.2018 40.8958 41.4753 41.5859 41.6445C42.2891 41.8138 43.0573 41.8984 43.8906 41.8984C44.9062 41.8984 45.7396 41.7552 46.3906 41.4688C47.0547 41.1823 47.543 40.7852 47.8555 40.2773C48.181 39.7695 48.3438 39.1966 48.3438 38.5586ZM69.75 22.4258L62.0156 46H55.7852L66.3516 17.5625H70.3164L69.75 22.4258ZM76.1758 46L68.4219 22.4258L67.7969 17.5625H71.8008L82.4258 46H76.1758ZM75.8242 35.4141V40.0039H60.8047V35.4141H75.8242ZM90.9219 17.5625V46H85.0625V17.5625H90.9219ZM107.953 17.5625L96.6836 31.6055L90.1797 38.5977L89.125 33.0508L93.5195 27.0352L100.766 17.5625H107.953ZM101.293 46L92.9141 32.8555L97.25 29.2227L108.227 46H101.293ZM122.055 22.4258L114.32 46H108.09L118.656 17.5625H122.621L122.055 22.4258ZM128.48 46L120.727 22.4258L120.102 17.5625H124.105L134.73 46H128.48ZM128.129 35.4141V40.0039H113.109V35.4141H128.129ZM143.227 17.5625V46H137.367V17.5625H143.227ZM154.555 29.7109V34.2812H141.625V29.7109H154.555ZM155.922 17.5625V22.1523H141.625V17.5625H155.922ZM182.68 31.1172V32.4648C182.68 34.6263 182.387 36.5664 181.801 38.2852C181.215 40.0039 180.388 41.4688 179.32 42.6797C178.253 43.8776 176.977 44.7956 175.492 45.4336C174.021 46.0716 172.387 46.3906 170.59 46.3906C168.806 46.3906 167.172 46.0716 165.688 45.4336C164.216 44.7956 162.94 43.8776 161.859 42.6797C160.779 41.4688 159.939 40.0039 159.34 38.2852C158.754 36.5664 158.461 34.6263 158.461 32.4648V31.1172C158.461 28.9427 158.754 27.0026 159.34 25.2969C159.926 23.5781 160.753 22.1133 161.82 20.9023C162.901 19.6914 164.177 18.7669 165.648 18.1289C167.133 17.4909 168.767 17.1719 170.551 17.1719C172.348 17.1719 173.982 17.4909 175.453 18.1289C176.938 18.7669 178.214 19.6914 179.281 20.9023C180.362 22.1133 181.195 23.5781 181.781 25.2969C182.38 27.0026 182.68 28.9427 182.68 31.1172ZM176.762 32.4648V31.0781C176.762 29.5677 176.625 28.2396 176.352 27.0938C176.078 25.9479 175.674 24.9844 175.141 24.2031C174.607 23.4219 173.956 22.8359 173.188 22.4453C172.419 22.0417 171.54 21.8398 170.551 21.8398C169.561 21.8398 168.682 22.0417 167.914 22.4453C167.159 22.8359 166.514 23.4219 165.98 24.2031C165.46 24.9844 165.062 25.9479 164.789 27.0938C164.516 28.2396 164.379 29.5677 164.379 31.0781V32.4648C164.379 33.9622 164.516 35.2904 164.789 36.4492C165.062 37.5951 165.466 38.5651 166 39.3594C166.534 40.1406 167.185 40.7331 167.953 41.1367C168.721 41.5404 169.6 41.7422 170.59 41.7422C171.579 41.7422 172.458 41.5404 173.227 41.1367C173.995 40.7331 174.639 40.1406 175.16 39.3594C175.681 38.5651 176.078 37.5951 176.352 36.4492C176.625 35.2904 176.762 33.9622 176.762 32.4648Z" fill="black"/>
<circle cx="6" cy="6" r="4.5" stroke="#FFB802" stroke-width="3"/>
<path d="M9 17.5H3V46H9V17.5Z" stroke="#FFB802" stroke-width="3"/>
<path d="M25 31.5H14V36H25V31.5Z" stroke="#FFB802" stroke-width="3"/>
</svg>
